# ProBuilder 5.2.4
# https://unity3d.com/unity/features/worldbuilding/probuilder
# 8/4/2025 1:44:46 p. m.

mtllib ./level-rendering.mtl
o level-rendering

g Cube
v 4 0 11
v 0 0 11
v 4 1 11
v 0 1 11
v 0 0 0
v 4 0 0
v 0 1 0
v 4 1 0
v -8 0 11
v -8 0 8
v -8 1 8
v -8 1 11
v 0 0 8
v 0 1 8
v 4 0 8
v 4 1 8
v 12 1 8
v 12 0 11
v 12 1 11
v 12 0 8
v 9 0 11
v 9 1 11
v 9 1 8
v 9 0 8
v 9 1 0
v 9 0 0
v 12 1 0
v 12 0 0
v -5 0 11
v -5 0 8
v -5 1 8
v -5 1 11
v -5 0 0
v -5 1 0
v -8 0 0
v -8 1 0
v -8 2.384186E-07 -30
v -8 1 -30
v 12 2.384186E-07 -30
v 12 1 -30
v 12 1 -29
v -8 1 -29
v 12 5 -29
v -8 5 -29
v -8 5 -30
v 12 5 -30
v 3 5 -1
v 12 5 -1
v 12 5 0
v 3 5 0
v 3 1 -1
v 3 1 0
v 12 1 -1
v -8 5 -1
v 1 5 -1
v 1 5 0
v -8 5 0
v 1 1 0
v -8 1 -1
v 1 1 -1
v -8 3 -1
v -8 3 0
v 12 3 -1
v 12 3 0
v 3 3 0
v 3 3 -1
v 1 3 0
v 1 3 -1
v -7 1 -1
v -7 5 -1
v -7 1 -29
v -7 5 -29
v 11 1 -1
v 11 5 -1
v 11 1 -29
v 11 5 -29
v 11 3 -5
v 11 3 -1
v 7 3 -1
v 7 0.9999998 -1
v 11 0.9999998 -1
v 11 0.9999998 -5
v -7 3.000001 -1
v -7 3.000001 -5
v -3 3.000001 -1
v -3 1.000001 -1
v -7 1.000001 -5
v -7 3.000001 -25
v -7 3.000001 -29
v -3 3.000001 -29
v -3 1.000001 -29
v -7 1.000001 -25
v 7 3 -29
v 11 3 -29
v 11 3 -25
v 11 1 -25
v 7 1 -29

vt 4 0
vt 0 0
vt 4 1
vt 0 1
vt -4 0
vt -4 1
vt 11 0
vt 8 0
vt 8 1
vt 11 1
vt -8 0
vt -8 1
vt -11 0
vt -11 1
vt 0 8
vt -4 8
vt -4 11
vt 0 11
vt 4 8
vt 4 11
vt 9 0
vt 9 1
vt -9 11
vt -9 8
vt -9 1
vt -9 0
vt 9 8
vt 9 11
vt 12 0
vt 12 1
vt -12 11
vt -12 8
vt -12 1
vt -12 0
vt 12 8
vt 12 11
vt -5 11
vt -5 8
vt 5 0
vt 5 1
vt -5 1
vt -5 0
vt 5 8
vt 5 11
vt -8 11
vt -8 8
vt 8 8
vt 8 11
vt -20 0
vt -20 1
vt 30 0
vt 30 1
vt 20 0
vt 20 1
vt -30 0
vt -30 1
vt 0 30
vt 20 30
vt -20 30
vt 0 4
vt -20 4
vt 1 0
vt 1 4
vt 20 4
vt -1 0
vt -1 4
vt -3 -1
vt -12 -1
vt -3 0
vt 3 -1
vt 3 0
vt 12 -1
vt 8 -1
vt -1 -1
vt -8 -1
vt 1 -1
vt 0 2
vt 1 2
vt -1 2
vt 11.76697 1
vt 2.941742 1
vt 2.941742 3
vt 11.76697 3
vt 11.76697 2.999999
vt 2.941742 3
vt 2.941742 5.000001
vt 11.76697 5
vt -2.745781 3.036942
vt -11.5707 0.9630584
vt -11.57922 2.999965
vt -2.737254 1.000035
vt -2.745781 5.036942
vt -11.5707 2.963058
vt -11.57922 4.999965
vt -2.737254 3.000035
vt 0.9805807 3
vt 0.9805807 5
vt 0.9805806 1
vt -7.844646 1
vt -7.844646 3
vt -7.844646 5
vt -0.7846531 5.019222
vt -2.745438 2.980778
vt -2.765229 4.999808
vt -0.7648616 3.000192
vt 8.040762 3
vt 8.040762 1
vt -0.7844646 3
vt -0.7844646 1
vt 8.040762 5
vt -0.7844646 5
vt -28 0
vt -28 4
vt 28 0
vt 28 4
vt 0 -28
vt 1 -28
vt -1 -28
vt -1 -3
vt -1 1
vt 3 1
vt -3 1
vt 1 1
vt 1 -3
vt 3 2
vt -1 2
vt 1 2
vt -3 2
vt 2.828427 -4.768372E-07
vt -2.828427 -4.768372E-07
vt 2.828427 2
vt -2.828427 2
vt 0 -4
vt -4 2
vt 2.828426 2
vt -2.828427 2
vt 4 2

vn 0 0 1
vn 0 0 -1
vn -1 0 0
vn 1 0 0
vn 0 1 0
vn 0 -1 0
vn -0.7071068 0 -0.7071068
vn 0.7071068 0 -0.7071068
vn 0.7071068 0 0.7071068
vn -0.7071068 0 0.7071068

usemtl ProBuilderDefault
f 3/3/1 2/2/1 1/1/1
f 3/3/1 4/4/1 2/2/1
f 7/4/2 6/5/2 5/2/2
f 7/4/2 8/6/2 6/5/2
f 11/9/3 10/8/3 9/7/3
f 11/9/3 9/7/3 12/10/3
f 7/4/3 5/2/3 13/8/3
f 7/4/3 13/8/3 14/9/3
f 16/12/4 15/11/4 8/4/4
f 15/11/4 6/2/4 8/4/4
f 19/14/4 18/13/4 17/12/4
f 18/13/4 20/11/4 17/12/4
f 3/17/5 16/16/5 14/15/5
f 3/17/5 14/15/5 4/18/5
f 16/16/5 8/5/5 7/2/5
f 16/16/5 7/2/5 14/15/5
f 13/15/6 5/2/6 15/19/6
f 5/2/6 6/1/6 15/19/6
f 2/18/6 13/15/6 1/20/6
f 13/15/6 15/19/6 1/20/6
f 21/21/1 3/3/1 1/1/1
f 21/21/1 22/22/1 3/3/1
f 22/23/5 16/16/5 3/17/5
f 22/23/5 23/24/5 16/16/5
f 23/25/2 15/5/2 16/6/2
f 23/25/2 24/26/2 15/5/2
f 24/27/6 1/20/6 15/19/6
f 24/27/6 21/28/6 1/20/6
f 18/29/1 22/22/1 21/21/1
f 18/29/1 19/30/1 22/22/1
f 19/31/5 23/24/5 22/23/5
f 19/31/5 17/32/5 23/24/5
f 27/33/2 26/26/2 25/25/2
f 27/33/2 28/34/2 26/26/2
f 20/35/6 21/28/6 24/27/6
f 20/35/6 18/36/6 21/28/6
f 25/4/3 24/8/3 23/9/3
f 25/4/3 26/2/3 24/8/3
f 27/34/5 23/24/5 17/32/5
f 27/34/5 25/26/5 23/24/5
f 26/21/6 20/35/6 24/27/6
f 26/21/6 28/29/6 20/35/6
f 28/2/4 17/12/4 20/11/4
f 28/2/4 27/4/4 17/12/4
f 29/37/6 13/15/6 2/18/6
f 29/37/6 30/38/6 13/15/6
f 30/39/2 14/4/2 13/2/2
f 30/39/2 31/40/2 14/4/2
f 32/41/1 2/2/1 4/4/1
f 32/41/1 29/42/1 2/2/1
f 31/43/5 4/18/5 14/15/5
f 31/43/5 32/44/5 4/18/5
f 9/45/6 30/38/6 29/37/6
f 9/45/6 10/46/6 30/38/6
f 35/8/2 34/40/2 33/39/2
f 35/8/2 36/9/2 34/40/2
f 12/12/1 29/42/1 32/41/1
f 12/12/1 9/11/1 29/42/1
f 11/47/5 32/44/5 31/43/5
f 11/47/5 12/48/5 32/44/5
f 33/2/4 31/12/4 30/11/4
f 33/2/4 34/4/4 31/12/4
f 35/11/6 30/38/6 10/46/6
f 35/11/6 33/42/6 30/38/6
f 34/39/5 11/47/5 31/43/5
f 34/39/5 36/8/5 11/47/5
f 36/4/3 10/8/3 11/9/3
f 36/4/3 35/2/3 10/8/3
f 27/4/1 35/49/1 28/2/1
f 27/4/1 36/50/1 35/49/1
f 36/52/3 37/2/3 35/51/3
f 36/52/3 38/4/3 37/2/3
f 38/54/2 39/2/2 37/53/2
f 38/54/2 40/4/2 39/2/2
f 40/4/4 28/55/4 39/2/4
f 40/4/4 27/56/4 28/55/4
f 40/2/5 36/58/5 27/57/5
f 40/2/5 38/53/5 36/58/5
f 28/57/6 37/49/6 39/2/6
f 28/57/6 35/59/6 37/49/6
f 43/60/1 42/49/1 41/2/1
f 43/60/1 44/61/1 42/49/1
f 44/63/3 38/2/3 42/62/3
f 44/63/3 45/60/3 38/2/3
f 45/64/2 40/2/2 38/53/2
f 45/64/2 46/60/2 40/2/2
f 46/60/4 41/65/4 40/2/4
f 46/60/4 43/66/4 41/65/4
f 46/2/5 44/54/5 43/4/5
f 46/2/5 45/53/5 44/54/5
f 41/4/6 38/49/6 40/2/6
f 41/4/6 42/50/6 38/49/6
f 49/34/5 48/68/5 47/67/5
f 49/34/5 47/67/5 50/69/5
f 52/71/6 51/70/6 27/29/6
f 51/70/6 53/72/6 27/29/6
f 56/65/5 55/74/5 54/73/5
f 56/65/5 54/73/5 57/8/5
f 50/69/5 47/67/5 55/74/5
f 50/69/5 55/74/5 56/65/5
f 36/11/6 59/75/6 58/62/6
f 59/75/6 60/76/6 58/62/6
f 61/77/3 59/2/3 36/62/3
f 61/77/3 36/62/3 62/78/3
f 54/60/3 61/77/3 62/78/3
f 54/60/3 62/78/3 57/63/3
f 64/79/4 27/65/4 63/77/4
f 27/65/4 53/2/4 63/77/4
f 49/66/4 64/79/4 48/60/4
f 64/79/4 63/77/4 48/60/4
f 65/82/1 52/81/1 27/80/1
f 65/82/1 27/80/1 64/83/1
f 50/86/1 65/85/1 64/84/1
f 50/86/1 64/84/1 49/87/1
f 63/90/2 53/89/2 66/88/2
f 53/89/2 51/91/2 66/88/2
f 48/94/2 63/93/2 47/92/2
f 63/93/2 66/95/2 47/92/2
f 56/97/1 67/96/1 65/82/1
f 56/97/1 65/82/1 50/86/1
f 36/99/1 58/98/1 67/96/1
f 62/100/1 36/99/1 67/96/1
f 62/100/1 67/96/1 56/97/1
f 57/101/1 62/100/1 56/97/1
f 47/104/2 66/103/2 55/102/2
f 66/103/2 68/105/2 55/102/2
f 68/108/2 59/107/2 61/106/2
f 68/108/2 60/109/2 59/107/2
f 55/111/2 61/106/2 54/110/2
f 55/111/2 68/108/2 61/106/2
f 60/2/4 68/77/4 58/65/4
f 68/77/4 67/79/4 58/65/4
f 68/13/6 66/26/6 67/14/6
f 66/26/6 65/25/6 67/14/6
f 66/77/3 51/2/3 65/78/3
f 51/2/3 52/62/3 65/78/3
f 70/60/1 59/65/1 69/2/1
f 70/60/1 54/66/1 59/65/1
f 54/60/3 42/112/3 59/2/3
f 54/60/3 44/113/3 42/112/3
f 44/63/2 71/2/2 42/62/2
f 44/63/2 72/60/2 71/2/2
f 72/115/4 69/2/4 71/114/4
f 72/115/4 70/60/4 69/2/4
f 72/116/5 54/62/5 70/2/5
f 72/116/5 44/117/5 54/62/5
f 69/2/6 42/118/6 71/116/6
f 69/2/6 59/65/6 42/118/6
f 48/63/1 73/2/1 53/62/1
f 48/63/1 74/60/1 73/2/1
f 74/60/3 75/112/3 73/2/3
f 74/60/3 76/113/3 75/112/3
f 76/60/2 41/65/2 75/2/2
f 76/60/2 43/66/2 41/65/2
f 43/115/4 53/2/4 41/114/4
f 43/115/4 48/60/4 53/2/4
f 43/118/5 74/2/5 48/65/5
f 43/118/5 76/116/5 74/2/5
f 53/62/6 75/116/6 41/117/6
f 53/62/6 73/2/6 75/116/6
f 79/121/5 78/120/5 77/119/5
f 82/124/6 81/123/6 80/122/6
f 77/125/4 81/65/4 82/71/4
f 77/125/4 78/126/4 81/65/4
f 78/127/1 80/69/1 81/62/1
f 78/127/1 79/128/1 80/69/1
f 79/131/7 82/130/7 80/129/7
f 79/131/7 77/132/7 82/130/7
f 85/5/5 84/133/5 83/2/5
f 69/2/6 87/133/6 86/1/6
f 83/77/3 87/5/3 69/2/3
f 83/77/3 84/134/3 87/5/3
f 84/135/8 86/130/8 87/129/8
f 84/135/8 85/136/8 86/130/8
f 85/137/1 69/2/1 86/1/1
f 85/137/1 83/77/1 69/2/1
f 90/5/5 89/2/5 88/60/5
f 92/60/6 71/2/6 91/1/6
f 88/137/3 71/2/3 92/1/3
f 88/137/3 89/77/3 71/2/3
f 89/77/2 91/5/2 71/2/2
f 89/77/2 90/134/2 91/5/2
f 90/135/9 92/130/9 91/129/9
f 90/135/9 88/136/9 92/130/9
f 95/60/5 94/2/5 93/1/5
f 97/5/6 75/2/6 96/60/6
f 93/137/2 75/2/2 97/1/2
f 93/137/2 94/77/2 75/2/2
f 94/77/4 96/5/4 75/2/4
f 94/77/4 95/134/4 96/5/4
f 95/135/10 97/130/10 96/129/10
f 95/135/10 93/136/10 97/130/10

