# Blender 4.3.2
# www.blender.org
mtllib wall.mtl
o Plane
v -1.000000 -1.000000 0.000000
v 1.000000 -1.000000 0.000000
v -1.000000 1.000000 -0.000000
v 1.000000 1.000000 -0.000000
v 2.002838 -1.000000 1.000000
v 2.002838 1.000000 1.000000
v 2.002838 -1.000000 -1.000000
v 2.002838 1.000000 -1.000000
v 4.002838 -1.000000 1.000000
v 4.002838 1.000000 1.000000
v 4.002838 -1.000000 -1.000000
v 4.002838 1.000000 -1.000000
vn -0.0000 -0.0000 1.0000
vn -1.0000 -0.0000 -0.0000
vn -0.0000 -0.0000 -1.0000
vn 1.0000 -0.0000 -0.0000
vn -0.0000 -1.0000 -0.0000
vn -0.0000 1.0000 -0.0000
vt 2.000000 0.000000
vt 0.000000 2.000000
vt 0.000000 0.000000
vt 2.000000 2.000000
vt 1.999800 1.999800
vt 0.000200 0.000200
vt 1.999800 0.000200
vt 1.999800 1.999800
vt 0.000200 0.000200
vt 1.999800 0.000200
vt 0.000200 0.000200
vt 1.999800 0.000200
vt 1.999800 0.000200
vt 0.000200 1.999800
vt 0.000200 0.000200
vt 0.000200 1.999800
vt 1.999800 0.000200
vt 1.999800 1.999800
vt 0.000200 1.999800
vt 0.000200 1.999800
vt 0.000200 1.999799
vt 0.000200 0.000200
s 1
usemtl Material
f 2/1/1 3/2/1 1/3/1
f 2/1/1 4/4/1 3/2/1
s 0
f 6/5/2 7/6/2 5/7/2
f 8/5/3 11/6/3 7/7/3
f 12/8/4 9/9/4 11/10/4
f 10/5/1 5/11/1 9/12/1
f 11/13/5 5/14/5 7/15/5
f 8/16/6 10/17/6 12/18/6
f 6/5/2 8/19/2 7/6/2
f 8/5/3 12/19/3 11/6/3
f 12/8/4 10/20/4 9/9/4
f 10/5/1 6/21/1 5/11/1
f 11/13/5 9/8/5 5/14/5
f 8/16/6 6/22/6 10/17/6
