# 3ds Max Wavefront OBJ Exporter v0.99 - (c)2007 guruware
# File Created: 17.03.2025 12:26:04

#
# object TestBox
#

v  -0.1228 0.0000 0.1964
v  -0.6964 0.0000 -0.6228
v  0.1228 0.0000 -1.1964
v  0.6964 0.0000 -0.3772
v  -0.1228 1.0000 0.1964
v  0.6964 1.0000 -0.3772
v  0.1228 1.0000 -1.1964
v  -0.6964 1.0000 -0.6228
# 8 vertices

vn 0.0000 -1.0000 -0.0000
vn 0.0000 1.0000 -0.0000
vn 0.5736 0.0000 0.8192
vn 0.8192 0.0000 -0.5736
vn -0.5736 0.0000 -0.8192
vn -0.8192 0.0000 0.5736
# 6 vertex normals

o TestBox
g TestBox
s 2
f 1//1 2//1 3//1 
f 3//1 4//1 1//1 
s 4
f 5//2 6//2 7//2 
f 7//2 8//2 5//2 
s 8
f 1//3 4//3 6//3 
f 6//3 5//3 1//3 
s 16
f 4//4 3//4 7//4 
f 7//4 6//4 4//4 
s 32
f 3//5 2//5 8//5 
f 8//5 7//5 3//5 
s 64
f 2//6 1//6 5//6 
f 5//6 8//6 2//6 
# 12 faces

#
# object Floor
#

v  -4.0000 -1.0000 1.5000
v  -4.0000 -1.0000 -4.5000
v  4.0000 -1.0000 -4.5000
v  4.0000 -1.0000 1.5000
v  -4.0000 0.0000 1.5000
v  4.0000 0.0000 1.5000
v  4.0000 0.0000 -4.5000
v  -4.0000 0.0000 -4.5000
# 8 vertices

vn 0.0000 -1.0000 -0.0000
vn 0.0000 1.0000 -0.0000
vn 0.0000 0.0000 1.0000
vn 1.0000 0.0000 -0.0000
vn 0.0000 0.0000 -1.0000
vn -1.0000 0.0000 -0.0000
# 6 vertex normals

o Floor
g Floor
s 2
f 9//7 10//7 11//7 
f 11//7 12//7 9//7 
s 4
f 13//8 14//8 15//8 
f 15//8 16//8 13//8 
s 8
f 9//9 12//9 14//9 
f 14//9 13//9 9//9 
s 16
f 12//10 11//10 15//10 
f 15//10 14//10 12//10 
s 32
f 11//11 10//11 16//11 
f 16//11 15//11 11//11 
s 64
f 10//12 9//12 13//12 
f 13//12 16//12 10//12 
# 12 faces

#
# object Box001
#

v  -4.5000 -1.0000 1.5000
v  -4.5000 -1.0000 -4.5000
v  -4.0000 -1.0000 -4.5000
v  -4.0000 -1.0000 1.5000
v  -4.5000 5.0000 1.5000
v  -4.0000 5.0000 1.5000
v  -4.0000 5.0000 -4.5000
v  -4.5000 5.0000 -4.5000
# 8 vertices

vn 0.0000 -1.0000 -0.0000
vn 0.0000 1.0000 -0.0000
vn 0.0000 0.0000 1.0000
vn 1.0000 0.0000 -0.0000
vn 0.0000 0.0000 -1.0000
vn -1.0000 0.0000 -0.0000
# 6 vertex normals

o Box001
g Box001
s 2
f 17//13 18//13 19//13 
f 19//13 20//13 17//13 
s 4
f 21//14 22//14 23//14 
f 23//14 24//14 21//14 
s 8
f 17//15 20//15 22//15 
f 22//15 21//15 17//15 
s 16
f 20//16 19//16 23//16 
f 23//16 22//16 20//16 
s 32
f 19//17 18//17 24//17 
f 24//17 23//17 19//17 
s 64
f 18//18 17//18 21//18 
f 21//18 24//18 18//18 
# 12 faces

#
# object Box002
#

v  4.0000 -1.0000 1.5000
v  4.0000 -1.0000 -4.5000
v  4.5000 -1.0000 -4.5000
v  4.5000 -1.0000 1.5000
v  4.0000 5.0000 1.5000
v  4.5000 5.0000 1.5000
v  4.5000 5.0000 -4.5000
v  4.0000 5.0000 -4.5000
# 8 vertices

vn 0.0000 -1.0000 -0.0000
vn 0.0000 1.0000 -0.0000
vn 0.0000 0.0000 1.0000
vn 1.0000 0.0000 -0.0000
vn 0.0000 0.0000 -1.0000
vn -1.0000 0.0000 -0.0000
# 6 vertex normals

o Box002
g Box002
s 2
f 25//19 26//19 27//19 
f 27//19 28//19 25//19 
s 4
f 29//20 30//20 31//20 
f 31//20 32//20 29//20 
s 8
f 25//21 28//21 30//21 
f 30//21 29//21 25//21 
s 16
f 28//22 27//22 31//22 
f 31//22 30//22 28//22 
s 32
f 27//23 26//23 32//23 
f 32//23 31//23 27//23 
s 64
f 26//24 25//24 29//24 
f 29//24 32//24 26//24 
# 12 faces

#
# object Box003
#

v  -4.5000 -1.0000 2.0000
v  -4.5000 -1.0000 1.5000
v  4.5000 -1.0000 1.5000
v  4.5000 -1.0000 2.0000
v  -4.5000 5.0000 2.0000
v  4.5000 5.0000 2.0000
v  4.5000 5.0000 1.5000
v  -4.5000 5.0000 1.5000
# 8 vertices

vn 0.0000 -1.0000 -0.0000
vn 0.0000 1.0000 -0.0000
vn 0.0000 0.0000 1.0000
vn 1.0000 0.0000 -0.0000
vn 0.0000 0.0000 -1.0000
vn -1.0000 0.0000 -0.0000
# 6 vertex normals

o Box003
g Box003
s 2
f 33//25 34//25 35//25 
f 35//25 36//25 33//25 
s 4
f 37//26 38//26 39//26 
f 39//26 40//26 37//26 
s 8
f 33//27 36//27 38//27 
f 38//27 37//27 33//27 
s 16
f 36//28 35//28 39//28 
f 39//28 38//28 36//28 
s 32
f 35//29 34//29 40//29 
f 40//29 39//29 35//29 
s 64
f 34//30 33//30 37//30 
f 37//30 40//30 34//30 
# 12 faces

#
# object Box004
#

v  2.0000 -1.0000 -4.5000
v  2.0000 -1.0000 -5.0000
v  4.5000 -1.0000 -5.0000
v  4.5000 -1.0000 -4.5000
v  2.0000 5.0000 -4.5000
v  4.5000 5.0000 -4.5000
v  4.5000 5.0000 -5.0000
v  2.0000 5.0000 -5.0000
# 8 vertices

vn 0.0000 -1.0000 -0.0000
vn 0.0000 1.0000 -0.0000
vn 0.0000 0.0000 1.0000
vn 1.0000 0.0000 -0.0000
vn 0.0000 0.0000 -1.0000
vn -1.0000 0.0000 -0.0000
# 6 vertex normals

o Box004
g Box004
s 2
f 41//31 42//31 43//31 
f 43//31 44//31 41//31 
s 4
f 45//32 46//32 47//32 
f 47//32 48//32 45//32 
s 8
f 41//33 44//33 46//33 
f 46//33 45//33 41//33 
s 16
f 44//34 43//34 47//34 
f 47//34 46//34 44//34 
s 32
f 43//35 42//35 48//35 
f 48//35 47//35 43//35 
s 64
f 42//36 41//36 45//36 
f 45//36 48//36 42//36 
# 12 faces

#
# object Box005
#

v  -4.5000 -1.0000 -4.5000
v  -4.5000 -1.0000 -5.0000
v  -2.0000 -1.0000 -5.0000
v  -2.0000 -1.0000 -4.5000
v  -4.5000 5.0000 -4.5000
v  -2.0000 5.0000 -4.5000
v  -2.0000 5.0000 -5.0000
v  -4.5000 5.0000 -5.0000
# 8 vertices

vn 0.0000 -1.0000 -0.0000
vn 0.0000 1.0000 -0.0000
vn 0.0000 0.0000 1.0000
vn 1.0000 0.0000 -0.0000
vn 0.0000 0.0000 -1.0000
vn -1.0000 0.0000 -0.0000
# 6 vertex normals

o Box005
g Box005
s 2
f 49//37 50//37 51//37 
f 51//37 52//37 49//37 
s 4
f 53//38 54//38 55//38 
f 55//38 56//38 53//38 
s 8
f 49//39 52//39 54//39 
f 54//39 53//39 49//39 
s 16
f 52//40 51//40 55//40 
f 55//40 54//40 52//40 
s 32
f 51//41 50//41 56//41 
f 56//41 55//41 51//41 
s 64
f 50//42 49//42 53//42 
f 53//42 56//42 50//42 
# 12 faces

#
# object Box006
#

v  -4.5000 -0.0000 -4.5000
v  4.5000 0.0000 -4.5000
v  4.5000 0.0000 -9.5000
v  -4.5000 -0.0000 -9.5000
v  -4.5000 -1.0000 -4.5000
v  -4.5000 -1.0000 -9.5000
v  4.5000 -1.0000 -9.5000
v  4.5000 -1.0000 -4.5000
# 8 vertices

vn -0.0000 1.0000 -0.0000
vn 0.0000 -1.0000 -0.0000
vn 0.0000 0.0000 1.0000
vn 1.0000 0.0000 -0.0000
vn 0.0000 0.0000 -1.0000
vn -1.0000 0.0000 -0.0000
# 6 vertex normals

o Box006
g Box006
s 2
f 57//43 58//43 59//43 
f 59//43 60//43 57//43 
s 4
f 61//44 62//44 63//44 
f 63//44 64//44 61//44 
s 8
f 57//45 61//45 64//45 
f 64//45 58//45 57//45 
s 16
f 58//46 64//46 63//46 
f 63//46 59//46 58//46 
s 32
f 59//47 63//47 62//47 
f 62//47 60//47 59//47 
s 64
f 60//48 62//48 61//48 
f 61//48 57//48 60//48 
# 12 faces

#
# object Box007
#

v  2.0000 0.0000 -5.0000
v  2.0000 0.0000 -9.5000
v  4.5000 0.0000 -9.5000
v  4.5000 0.0000 -5.0000
v  4.5000 1.5000 -9.5000
v  4.5000 1.5000 -5.0000
# 6 vertices

vn 0.0000 -1.0000 -0.0000
vn 1.0000 0.0000 -0.0000
vn 0.0000 0.0000 -1.0000
vn 0.0000 0.0000 1.0000
vn -0.5145 0.8575 -0.0000
# 5 vertex normals

o Box007
g Box007
s 2
f 65//49 66//49 67//49 
f 67//49 68//49 65//49 
s 16
f 68//50 67//50 69//50 
f 69//50 70//50 68//50 
s 32
f 67//51 66//51 69//51 
s 8
f 65//52 68//52 70//52 
s 1
f 70//53 69//53 66//53 
f 66//53 65//53 70//53 
# 8 faces

#
# object Box008
#

v  -4.5000 0.0000 -5.0000
v  -4.5000 0.0000 -9.5000
v  -2.0000 0.0000 -9.5000
v  -2.0000 0.0000 -5.0000
v  -4.5000 1.5000 -5.0000
v  -4.5000 1.5000 -9.5000
# 6 vertices

vn 0.0000 -1.0000 -0.0000
vn 0.0000 0.0000 1.0000
vn -1.0000 0.0000 -0.0000
vn 0.0000 0.0000 -1.0000
vn 0.5145 0.8575 -0.0000
# 5 vertex normals

o Box008
g Box008
s 2
f 71//54 72//54 73//54 
f 73//54 74//54 71//54 
s 8
f 71//55 74//55 75//55 
s 64
f 72//56 71//56 75//56 
f 75//56 76//56 72//56 
s 32
f 73//57 72//57 76//57 
s 1
f 76//58 75//58 74//58 
f 74//58 73//58 76//58 
# 8 faces

#
# object Box009
#

v  4.5000 0.5000 -5.0000
v  4.5000 0.5000 -9.5000
v  9.0000 0.5000 -9.5000
v  9.0000 0.5000 -5.0000
v  4.5000 1.5000 -5.0000
v  9.0000 1.5000 -5.0000
v  9.0000 1.5000 -9.5000
v  4.5000 1.5000 -9.5000
# 8 vertices

vn 0.0000 -1.0000 -0.0000
vn 0.0000 1.0000 -0.0000
vn 0.0000 0.0000 1.0000
vn 1.0000 0.0000 -0.0000
vn 0.0000 0.0000 -1.0000
vn -1.0000 0.0000 -0.0000
# 6 vertex normals

o Box009
g Box009
s 2
f 77//59 78//59 79//59 
f 79//59 80//59 77//59 
s 4
f 81//60 82//60 83//60 
f 83//60 84//60 81//60 
s 8
f 77//61 80//61 82//61 
f 82//61 81//61 77//61 
s 16
f 80//62 79//62 83//62 
f 83//62 82//62 80//62 
s 32
f 79//63 78//63 84//63 
f 84//63 83//63 79//63 
s 64
f 81//64 84//64 78//64 
f 78//64 77//64 81//64 
# 12 faces

#
# object Box010
#

v  -9.0000 0.5000 -5.0000
v  -9.0000 0.5000 -9.5000
v  -4.5000 0.5000 -9.5000
v  -4.5000 0.5000 -5.0000
v  -9.0000 1.5000 -5.0000
v  -4.5000 1.5000 -5.0000
v  -4.5000 1.5000 -9.5000
v  -9.0000 1.5000 -9.5000
# 8 vertices

vn 0.0000 -1.0000 -0.0000
vn 0.0000 1.0000 -0.0000
vn 0.0000 0.0000 1.0000
vn 1.0000 0.0000 -0.0000
vn 0.0000 0.0000 -1.0000
vn -1.0000 0.0000 -0.0000
# 6 vertex normals

o Box010
g Box010
s 2
f 85//65 86//65 87//65 
f 87//65 88//65 85//65 
s 4
f 89//66 90//66 91//66 
f 91//66 92//66 89//66 
s 8
f 85//67 88//67 90//67 
f 90//67 89//67 85//67 
s 16
f 88//68 87//68 91//68 
f 91//68 90//68 88//68 
s 32
f 87//69 86//69 92//69 
f 92//69 91//69 87//69 
s 64
f 89//70 92//70 86//70 
f 86//70 85//70 89//70 
# 12 faces

#
# object Box011
#

v  4.5000 0.5000 6.5000
v  4.5000 0.5000 2.0000
v  9.0000 0.5000 2.0000
v  9.0000 0.5000 6.5000
v  4.5000 1.5000 6.5000
v  9.0000 1.5000 6.5000
v  9.0000 1.5000 2.0000
v  4.5000 1.5000 2.0000
# 8 vertices

vn 0.0000 -1.0000 -0.0000
vn 0.0000 1.0000 -0.0000
vn 0.0000 0.0000 1.0000
vn 1.0000 0.0000 -0.0000
vn 0.0000 0.0000 -1.0000
vn -1.0000 0.0000 -0.0000
# 6 vertex normals

o Box011
g Box011
s 2
f 93//71 94//71 95//71 
f 95//71 96//71 93//71 
s 4
f 97//72 98//72 99//72 
f 99//72 100//72 97//72 
s 8
f 93//73 96//73 98//73 
f 98//73 97//73 93//73 
s 16
f 96//74 95//74 99//74 
f 99//74 98//74 96//74 
s 32
f 95//75 94//75 100//75 
f 100//75 99//75 95//75 
s 64
f 97//76 100//76 94//76 
f 94//76 93//76 97//76 
# 12 faces

#
# object Box012
#

v  -9.0000 0.5000 6.5000
v  -9.0000 0.5000 2.0000
v  -4.5000 0.5000 2.0000
v  -4.5000 0.5000 6.5000
v  -9.0000 1.5000 6.5000
v  -4.5000 1.5000 6.5000
v  -4.5000 1.5000 2.0000
v  -9.0000 1.5000 2.0000
# 8 vertices

vn 0.0000 -1.0000 -0.0000
vn 0.0000 1.0000 -0.0000
vn 0.0000 0.0000 1.0000
vn 1.0000 0.0000 -0.0000
vn 0.0000 0.0000 -1.0000
vn -1.0000 0.0000 -0.0000
# 6 vertex normals

o Box012
g Box012
s 2
f 101//77 102//77 103//77 
f 103//77 104//77 101//77 
s 4
f 105//78 106//78 107//78 
f 107//78 108//78 105//78 
s 8
f 101//79 104//79 106//79 
f 106//79 105//79 101//79 
s 16
f 104//80 103//80 107//80 
f 107//80 106//80 104//80 
s 32
f 103//81 102//81 108//81 
f 108//81 107//81 103//81 
s 64
f 105//82 108//82 102//82 
f 102//82 101//82 105//82 
# 12 faces

#
# object Box014
#

v  4.5000 1.5000 2.0000
v  4.5000 1.5000 6.5000
v  2.0000 1.5000 6.5000
v  2.0000 1.5000 2.0000
v  2.0000 3.0000 6.5000
v  2.0000 3.0000 2.0000
# 6 vertices

vn 0.0000 -1.0000 -0.0000
vn -1.0000 0.0000 0.0000
vn 0.0000 0.0000 1.0000
vn -0.0000 0.0000 -1.0000
vn 0.5145 0.8575 -0.0000
# 5 vertex normals

o Box014
g Box014
s 2
f 109//83 110//83 111//83 
f 111//83 112//83 109//83 
s 16
f 112//84 111//84 113//84 
f 113//84 114//84 112//84 
s 32
f 111//85 110//85 113//85 
s 8
f 109//86 112//86 114//86 
s 1
f 114//87 113//87 110//87 
f 110//87 109//87 114//87 
# 8 faces

#
# object Box015
#

v  -2.0000 1.5000 2.0000
v  -2.0000 1.5000 6.5000
v  -4.5000 1.5000 6.5000
v  -4.5000 1.5000 2.0000
v  -2.0000 3.0000 2.0000
v  -2.0000 3.0000 6.5000
# 6 vertices

vn 0.0000 -1.0000 -0.0000
vn -0.0000 0.0000 -1.0000
vn 1.0000 0.0000 -0.0000
vn 0.0000 0.0000 1.0000
vn -0.5145 0.8575 0.0000
# 5 vertex normals

o Box015
g Box015
s 2
f 115//88 116//88 117//88 
f 117//88 118//88 115//88 
s 8
f 115//89 118//89 119//89 
s 64
f 116//90 115//90 119//90 
f 119//90 120//90 116//90 
s 32
f 117//91 116//91 120//91 
s 1
f 120//92 119//92 118//92 
f 118//92 117//92 120//92 
# 8 faces

#
# object Box016
#

v  -2.0000 3.0000 6.5000
v  2.0000 3.0000 6.5000
v  2.0000 3.0000 2.0000
v  -2.0000 3.0000 2.0000
v  -2.0000 2.5000 6.5000
v  -2.0000 2.5000 2.0000
v  2.0000 2.5000 2.0000
v  2.0000 2.5000 6.5000
# 8 vertices

vn 0.0000 1.0000 -0.0000
vn 0.0000 -1.0000 -0.0000
vn 0.0000 0.0000 1.0000
vn 1.0000 0.0000 -0.0000
vn 0.0000 0.0000 -1.0000
vn -1.0000 0.0000 -0.0000
# 6 vertex normals

o Box016
g Box016
s 2
f 121//93 122//93 123//93 
f 123//93 124//93 121//93 
s 4
f 125//94 126//94 127//94 
f 127//94 128//94 125//94 
s 8
f 121//95 125//95 128//95 
f 128//95 122//95 121//95 
s 16
f 122//96 128//96 127//96 
f 127//96 123//96 122//96 
s 32
f 123//97 127//97 126//97 
f 126//97 124//97 123//97 
s 64
f 124//98 126//98 125//98 
f 125//98 121//98 124//98 
# 12 faces

#
# object Box017
#

v  -4.5000 1.5000 6.5000
v  4.5000 1.5000 6.5000
v  4.5000 1.5000 2.0000
v  -4.5000 1.5000 2.0000
v  -4.5000 0.5000 6.5000
v  -4.5000 0.5000 2.0000
v  4.5000 0.5000 2.0000
v  4.5000 0.5000 6.5000
# 8 vertices

vn 0.0000 1.0000 -0.0000
vn 0.0000 -1.0000 -0.0000
vn -0.0000 -0.0000 1.0000
vn 0.0000 0.0000 1.0000
vn 1.0000 0.0000 -0.0000
vn 0.0000 0.0000 -1.0000
vn -1.0000 0.0000 -0.0000
# 7 vertex normals

o Box017
g Box017
s 2
f 129//99 130//99 131//99 
f 131//99 132//99 129//99 
s 4
f 133//100 134//100 135//100 
f 135//100 136//100 133//100 
s 8
f 129//101 133//101 136//101 
f 136//101 130//102 129//101 
s 16
f 130//103 136//103 135//103 
f 135//103 131//103 130//103 
s 32
f 131//104 135//104 134//104 
f 134//104 132//104 131//104 
s 64
f 129//105 132//105 134//105 
f 134//105 133//105 129//105 
# 12 faces

#
# object Box018
#

v  -4.5000 0.0000 -5.0000
v  -4.5000 0.0000 2.0000
v  -9.0000 0.0000 2.0000
v  -9.0000 0.0000 -5.0000
v  -4.5000 1.5000 -5.0000
v  -9.0000 1.5000 -5.0000
v  -9.0000 1.5000 2.0000
v  -4.5000 1.5000 2.0000
# 8 vertices

vn 0.0000 -1.0000 -0.0000
vn 0.0000 1.0000 -0.0000
vn 0.0000 0.0000 1.0000
vn 1.0000 0.0000 -0.0000
vn 0.0000 0.0000 -1.0000
vn -1.0000 0.0000 -0.0000
# 6 vertex normals

o Box018
g Box018
s 2
f 137//106 138//106 139//106 
f 139//106 140//106 137//106 
s 4
f 141//107 142//107 143//107 
f 143//107 144//107 141//107 
s 8
f 144//108 143//108 139//108 
f 139//108 138//108 144//108 
s 16
f 141//109 144//109 138//109 
f 138//109 137//109 141//109 
s 32
f 142//110 141//110 137//110 
f 137//110 140//110 142//110 
s 64
f 143//111 142//111 140//111 
f 140//111 139//111 143//111 
# 12 faces

#
# object Box019
#

v  9.0000 0.0000 -5.0000
v  9.0000 0.0000 2.0000
v  4.5000 0.0000 2.0000
v  4.5000 0.0000 -5.0000
v  9.0000 1.5000 -5.0000
v  4.5000 1.5000 -5.0000
v  4.5000 1.5000 2.0000
v  9.0000 1.5000 2.0000
# 8 vertices

vn 0.0000 -1.0000 -0.0000
vn 0.0000 1.0000 -0.0000
vn 0.0000 0.0000 1.0000
vn 1.0000 0.0000 -0.0000
vn 0.0000 0.0000 -1.0000
vn -1.0000 0.0000 -0.0000
# 6 vertex normals

o Box019
g Box019
s 2
f 145//112 146//112 147//112 
f 147//112 148//112 145//112 
s 4
f 149//113 150//113 151//113 
f 151//113 152//113 149//113 
s 8
f 152//114 151//114 147//114 
f 147//114 146//114 152//114 
s 16
f 149//115 152//115 146//115 
f 146//115 145//115 149//115 
s 32
f 150//116 149//116 145//116 
f 145//116 148//116 150//116 
s 64
f 151//117 150//117 148//117 
f 148//117 147//117 151//117 
# 12 faces

#
# object Box020
#

v  -9.0000 -1.0000 -9.5000
v  -9.0000 -1.0000 -10.0000
v  9.0000 -1.0000 -10.0000
v  9.0000 -1.0000 -9.5000
v  -9.0000 5.0000 -9.5000
v  9.0000 5.0000 -9.5000
v  9.0000 5.0000 -10.0000
v  -9.0000 5.0000 -10.0000
# 8 vertices

vn 0.0000 -1.0000 -0.0000
vn 0.0000 1.0000 -0.0000
vn 0.0000 0.0000 1.0000
vn 1.0000 0.0000 -0.0000
vn 0.0000 0.0000 -1.0000
vn -1.0000 0.0000 -0.0000
# 6 vertex normals

o Box020
g Box020
s 2
f 153//118 154//118 155//118 
f 155//118 156//118 153//118 
s 4
f 157//119 158//119 159//119 
f 159//119 160//119 157//119 
s 8
f 153//120 156//120 158//120 
f 158//120 157//120 153//120 
s 16
f 156//121 155//121 159//121 
f 159//121 158//121 156//121 
s 32
f 155//122 154//122 160//122 
f 160//122 159//122 155//122 
s 64
f 154//123 153//123 157//123 
f 157//123 160//123 154//123 
# 12 faces

#
# object Box021
#

v  -9.5000 -1.0000 7.0000
v  -9.5000 -1.0000 -10.0000
v  -9.0000 -1.0000 -10.0000
v  -9.0000 -1.0000 7.0000
v  -9.5000 5.0000 7.0000
v  -9.0000 5.0000 7.0000
v  -9.0000 5.0000 -10.0000
v  -9.5000 5.0000 -10.0000
# 8 vertices

vn 0.0000 -1.0000 -0.0000
vn 0.0000 1.0000 -0.0000
vn 0.0000 0.0000 1.0000
vn 1.0000 0.0000 -0.0000
vn 0.0000 0.0000 -1.0000
vn -1.0000 0.0000 -0.0000
# 6 vertex normals

o Box021
g Box021
s 2
f 161//124 162//124 163//124 
f 163//124 164//124 161//124 
s 4
f 165//125 166//125 167//125 
f 167//125 168//125 165//125 
s 8
f 161//126 164//126 166//126 
f 166//126 165//126 161//126 
s 16
f 164//127 163//127 167//127 
f 167//127 166//127 164//127 
s 32
f 163//128 162//128 168//128 
f 168//128 167//128 163//128 
s 64
f 162//129 161//129 165//129 
f 165//129 168//129 162//129 
# 12 faces

#
# object Box022
#

v  9.0000 -1.0000 7.0000
v  9.0000 -1.0000 -10.0000
v  9.5000 -1.0000 -10.0000
v  9.5000 -1.0000 7.0000
v  9.0000 5.0000 7.0000
v  9.5000 5.0000 7.0000
v  9.5000 5.0000 -10.0000
v  9.0000 5.0000 -10.0000
# 8 vertices

vn 0.0000 -1.0000 -0.0000
vn 0.0000 1.0000 -0.0000
vn 0.0000 0.0000 1.0000
vn 1.0000 0.0000 -0.0000
vn 0.0000 0.0000 -1.0000
vn -1.0000 0.0000 -0.0000
# 6 vertex normals

o Box022
g Box022
s 2
f 169//130 170//130 171//130 
f 171//130 172//130 169//130 
s 4
f 173//131 174//131 175//131 
f 175//131 176//131 173//131 
s 8
f 169//132 172//132 174//132 
f 174//132 173//132 169//132 
s 16
f 172//133 171//133 175//133 
f 175//133 174//133 172//133 
s 32
f 171//134 170//134 176//134 
f 176//134 175//134 171//134 
s 64
f 170//135 169//135 173//135 
f 173//135 176//135 170//135 
# 12 faces

#
# object Box023
#

v  -9.0000 -1.0000 7.0000
v  -9.0000 -1.0000 6.5000
v  9.0000 -1.0000 6.5000
v  9.0000 -1.0000 7.0000
v  -9.0000 5.0000 7.0000
v  9.0000 5.0000 7.0000
v  9.0000 5.0000 6.5000
v  -9.0000 5.0000 6.5000
# 8 vertices

vn 0.0000 -1.0000 -0.0000
vn 0.0000 1.0000 -0.0000
vn 0.0000 0.0000 1.0000
vn 1.0000 0.0000 -0.0000
vn 0.0000 0.0000 -1.0000
vn -1.0000 0.0000 -0.0000
# 6 vertex normals

o Box023
g Box023
s 2
f 177//136 178//136 179//136 
f 179//136 180//136 177//136 
s 4
f 181//137 182//137 183//137 
f 183//137 184//137 181//137 
s 8
f 177//138 180//138 182//138 
f 182//138 181//138 177//138 
s 16
f 180//139 179//139 183//139 
f 183//139 182//139 180//139 
s 32
f 179//140 178//140 184//140 
f 184//140 183//140 179//140 
s 64
f 178//141 177//141 181//141 
f 181//141 184//141 178//141 
# 12 faces

#
# object Box024
#

v  0.5421 1.0225 -0.4807
v  -0.0394 1.0111 -1.2361
v  0.7905 -0.1219 -1.8577
v  1.3720 -0.1104 -1.1024
v  0.6924 1.1976 -0.5990
v  1.5223 0.0646 -1.2207
v  0.9408 0.0532 -1.9761
v  0.1109 1.1861 -1.3544
# 8 vertices

vn -0.5796 -0.6750 0.4565
vn 0.5796 0.6750 -0.4565
vn 0.6100 0.0120 0.7923
vn 0.5404 -0.7377 -0.4048
vn -0.6100 -0.0120 -0.7923
vn -0.5404 0.7377 0.4048
# 6 vertex normals

o Box024
g Box024
s 2
f 185//142 186//142 187//142 
f 187//142 188//142 185//142 
s 4
f 189//143 190//143 191//143 
f 191//143 192//143 189//143 
s 8
f 185//144 188//144 190//144 
f 190//144 189//144 185//144 
s 16
f 188//145 187//145 191//145 
f 191//145 190//145 188//145 
s 32
f 187//146 186//146 192//146 
f 192//146 191//146 187//146 
s 64
f 186//147 185//147 189//147 
f 189//147 192//147 186//147 
# 12 faces

#
# object Box025
#

v  -3.5000 0.0000 -2.5000
v  -3.5000 0.0000 -4.0000
v  -2.5000 0.0000 -4.0000
v  -2.5000 0.0000 -2.5000
v  -3.5000 1.5000 -2.5000
v  -2.5000 1.5000 -2.5000
v  -2.5000 1.5000 -4.0000
v  -3.5000 1.5000 -4.0000
# 8 vertices

vn 0.0000 -1.0000 -0.0000
vn 0.0000 1.0000 -0.0000
vn 0.0000 0.0000 1.0000
vn 1.0000 0.0000 -0.0000
vn 0.0000 0.0000 -1.0000
vn -1.0000 0.0000 -0.0000
# 6 vertex normals

o Box025
g Box025
s 2
f 193//148 194//148 195//148 
f 195//148 196//148 193//148 
s 4
f 197//149 198//149 199//149 
f 199//149 200//149 197//149 
s 8
f 193//150 196//150 198//150 
f 198//150 197//150 193//150 
s 16
f 196//151 195//151 199//151 
f 199//151 198//151 196//151 
s 32
f 195//152 194//152 200//152 
f 200//152 199//152 195//152 
s 64
f 194//153 193//153 197//153 
f 197//153 200//153 194//153 
# 12 faces

